HIERARCHY
ROOT hip
{
  OFFSET 264.542 84.1921 -3.83653
  CHANNELS 6 Xposition Yposition Zposition Zrotation Xrotation Yrotation
  JOINT abdomen
  {
    OFFSET 0 20.6881 -0.73152
    CHANNELS 3 Zrotation Xrotation Yrotation
    JOINT chest
    {
      OFFSET 0 11.7043 -0.48768
      CHANNELS 3 Zrotation Xrotation Yrotation
      JOINT neck
      {
        OFFSET 0 22.1894 -2.19456
        CHANNELS 3 Zrotation Xrotation Yrotation
        JOINT head
        {
          OFFSET -0.24384 7.07133 1.2192
          CHANNELS 3 Zrotation Xrotation Yrotation
          JOINT leftEye
          {
            OFFSET 4.14528 8.04674 8.04672
            CHANNELS 3 Zrotation Xrotation Yrotation
            End Site
            {
              OFFSET 1 0 0
            }
          }
          JOINT rightEye
          {
            OFFSET -3.6576 8.04674 8.04672
            CHANNELS 3 Zrotation Xrotation Yrotation
            End Site
            {
              OFFSET 1 0 0
            }
          }
        }
      }
      JOINT rCollar
      {
        OFFSET -2.68224 19.2634 -4.8768
        CHANNELS 3 Zrotation Xrotation Yrotation
        JOINT rShldr
        {
          OFFSET -8.77824 -1.95073 1.46304
          CHANNELS 3 Zrotation Xrotation Yrotation
          JOINT rForeArm
          {
            OFFSET -28.1742 -1.7115 0.48768
            CHANNELS 3 Zrotation Xrotation Yrotation
            JOINT rHand
            {
              OFFSET -22.5879 0.773209 7.07136
              CHANNELS 3 Zrotation Xrotation Yrotation
              JOINT rThumb1
              {
                OFFSET -1.2192 -0.487915 3.41376
                CHANNELS 3 Zrotation Xrotation Yrotation
                JOINT rThumb2
                {
                  OFFSET -3.37035 -0.52449 3.41376
                  CHANNELS 3 Zrotation Xrotation Yrotation
                  End Site
                  {
                    OFFSET -1.78271 -1.18214 1.43049
                  }
                }
              }
              JOINT rIndex1
              {
                OFFSET -7.75947 0.938293 5.60832
                CHANNELS 3 Zrotation Xrotation Yrotation
                JOINT rIndex2
                {
                  OFFSET -2.54057 -0.884171 1.56538
                  CHANNELS 3 Zrotation Xrotation Yrotation
                  End Site
                  {
                    OFFSET -1.62519 -0.234802 1.16502
                  }
                }
              }
              JOINT rMid1
              {
                OFFSET -8.24714 1.18213 3.41376
                CHANNELS 3 Zrotation Xrotation Yrotation
                JOINT rMid2
                {
                  OFFSET -3.10165 -0.590103 1.0647
                  CHANNELS 3 Zrotation Xrotation Yrotation
                  End Site
                  {
                    OFFSET -2.48547 -0.328903 0.83742
                  }
                }
              }
              JOINT rRing1
              {
                OFFSET -8.82822 0.546677 1.51678
                CHANNELS 3 Zrotation Xrotation Yrotation
                JOINT rRing2
                {
                  OFFSET -2.60934 -0.819778 -0.0198488
                  CHANNELS 3 Zrotation Xrotation Yrotation
                  End Site
                  {
                    OFFSET -2.33842 -0.294052 0.168128
                  }
                }
              }
              JOINT rPinky1
              {
                OFFSET -8.27202 -0.0477905 -0.4584
                CHANNELS 3 Zrotation Xrotation Yrotation
                JOINT rPinky2
                {
                  OFFSET -1.82734 -0.647385 -0.700984
                  CHANNELS 3 Zrotation Xrotation Yrotation
                  End Site
                  {
                    OFFSET -1.69225 -0.51767 -0.607171
                  }
                }
              }
            }
          }
        }
      }
      JOINT lCollar
      {
        OFFSET 2.68224 19.2634 -4.8768
        CHANNELS 3 Zrotation Xrotation Yrotation
        JOINT lShldr
        {
          OFFSET 8.77824 -1.95073 1.46304
          CHANNELS 3 Zrotation Xrotation Yrotation
          JOINT lForeArm
          {
            OFFSET 28.1742 -1.7115 0.48768
            CHANNELS 3 Zrotation Xrotation Yrotation
            JOINT lHand
            {
              OFFSET 22.5879 0.773209 7.07136
              CHANNELS 3 Zrotation Xrotation Yrotation
              JOINT lThumb1
              {
                OFFSET 1.2192 -0.487915 3.41376
                CHANNELS 3 Zrotation Xrotation Yrotation
                JOINT lThumb2
                {
                  OFFSET 3.37035 -0.52449 3.41376
                  CHANNELS 3 Zrotation Xrotation Yrotation
                  End Site
                  {
                    OFFSET 1.78271 -1.18214 1.43049
                  }
                }
              }
              JOINT lIndex1
              {
                OFFSET 7.75947 0.938293 5.60832
                CHANNELS 3 Zrotation Xrotation Yrotation
                JOINT lIndex2
                {
                  OFFSET 2.54057 -0.884171 1.56538
                  CHANNELS 3 Zrotation Xrotation Yrotation
                  End Site
                  {
                    OFFSET 1.62519 -0.234802 1.16502
                  }
                }
              }
              JOINT lMid1
              {
                OFFSET 8.24714 1.18213 3.41376
                CHANNELS 3 Zrotation Xrotation Yrotation
                JOINT lMid2
                {
                  OFFSET 3.10165 -0.590103 1.0647
                  CHANNELS 3 Zrotation Xrotation Yrotation
                  End Site
                  {
                    OFFSET 2.48547 -0.328903 0.83742
                  }
                }
              }
              JOINT lRing1
              {
                OFFSET 8.82822 0.546677 1.51678
                CHANNELS 3 Zrotation Xrotation Yrotation
                JOINT lRing2
                {
                  OFFSET 2.60934 -0.819778 -0.0198488
                  CHANNELS 3 Zrotation Xrotation Yrotation
                  End Site
                  {
                    OFFSET 2.33842 -0.294052 0.168128
                  }
                }
              }
              JOINT lPinky1
              {
                OFFSET 8.27202 -0.0477905 -0.4584
                CHANNELS 3 Zrotation Xrotation Yrotation
                JOINT lPinky2
                {
                  OFFSET 1.82734 -0.647385 -0.700984
                  CHANNELS 3 Zrotation Xrotation Yrotation
                  End Site
                  {
                    OFFSET 1.69225 -0.51767 -0.607171
                  }
                }
              }
            }
          }
        }
      }
    }
  }
  JOINT rButtock
  {
    OFFSET -8.77824 4.35084 1.2192
    CHANNELS 3 Zrotation Xrotation Yrotation
    JOINT rThigh
    {
      OFFSET 0 -1.70687 -2.19456
      CHANNELS 3 Zrotation Xrotation Yrotation
      JOINT rShin
      {
        OFFSET 0 -36.8199 0.73152
        CHANNELS 3 Zrotation Xrotation Yrotation
        JOINT rFoot
        {
          OFFSET 0.73152 -45.1104 -5.12064
          CHANNELS 3 Zrotation Xrotation Yrotation
          End Site
          {
            OFFSET -1.1221 -3.69964 12.103
          }
        }
      }
    }
  }
  JOINT lButtock
  {
    OFFSET 8.77824 4.35084 1.2192
    CHANNELS 3 Zrotation Xrotation Yrotation
    JOINT lThigh
    {
      OFFSET 0 -1.70687 -2.19456
      CHANNELS 3 Zrotation Xrotation Yrotation
      JOINT lShin
      {
        OFFSET 0 -36.8199 0.73152
        CHANNELS 3 Zrotation Xrotation Yrotation
        JOINT lFoot
        {
          OFFSET -0.73152 -45.1104 -5.12064
          CHANNELS 3 Zrotation Xrotation Yrotation
          End Site
          {
            OFFSET 1.1221 -3.69964 12.103
          }
        }
      }
    }
  }
}
MOTION
Frames:	5
Frame Time:	0.00833333
-82.0759 84.0842 6.64546 1.17499 0.00318789 -0.0220109 -1.54495 -0.00284646 -0.0420519 -0.42543 0.00110947 -0.0736763 1.4131e-014 0 -2.23633e-016 4.28629e-014 3.18055e-015 -7.98245e-016 -0 0 0 -0 0 0 7.1059e-015 7.60973e-017 0 1.50671e-013 1.36043e-015 -1.39149e-015 2.57928e-012 -7.14035e-013 -8.5875e-014 2.94417e-011 1.05502e-012 -5.40694e-013 6.94618e-011 7.44582e-013 -1.33901e-012 1.19945e-010 1.28494e-012 -2.32578e-012 6.94673e-011 7.45045e-013 -1.34856e-012 7.73091 5.47488 0.417314 6.94616e-011 7.44548e-013 -1.33901e-012 2.90554 0.965183 0.102902 6.94665e-011 7.44846e-013 -1.34299e-012 10.2786 0.731801 0.0259123 6.94562e-011 7.47033e-013 -1.32947e-012 2.22167 -0.733487 -0.20892 7.00827e-015 7.80385e-017 -2.98177e-016 1.47593e-013 1.27968e-015 -2.98177e-015 2.56894e-012 8.22969e-013 -7.63333e-014 2.94693e-011 -4.82972e-013 -5.31153e-013 6.94981e-011 7.43727e-013 -1.34219e-012 1.20024e-010 1.28812e-012 -2.32101e-012 6.94931e-011 7.42262e-013 -1.33901e-012 -7.73091 5.47488 -0.417314 6.94984e-011 7.43852e-013 -1.34219e-012 -2.90554 0.965183 -0.102902 6.94933e-011 7.43753e-013 -1.34299e-012 -10.2786 0.731801 -0.0259123 6.95015e-011 7.46238e-013 -1.34856e-012 -2.22167 -0.733487 0.20892 -2.03217e-016 0 -3.88251e-019 -0.631559 -1.92333 -0.00658784 -0.00945162 -2.07853 -0.0781695 -0.540965 3.99724 0.14457 2.03217e-016 0 3.88251e-019 -1.71425 -6.54908 0.158526 -0.00227252 6.30064 -0.0690885 0.559305 0.243958 -0.0686249 
-81.1528 82.7825 -3.23705 -1.46645 0.793541 48.6467 -1.62519 -1.49897 0.743641 -0.373998 0.573986 0.139878 1.73643 4.25469 1.88443 -0.935061 -14.0047 2.9498 -0 0 0 -0 0 0 -1.52449e-016 -1.36914e-015 3.105e-014 23.6113 4.42858 1.0157 -2.511 -0.932029 4.11958 0.0234087 3.39584 0.474233 -1.96918e-010 3.59264e-010 -1.43127e-010 -3.4194e-010 6.21344e-010 -2.44592e-010 -1.96912e-010 3.59264e-010 -1.43136e-010 7.73091 5.47488 0.417314 -1.96919e-010 3.59263e-010 -1.43125e-010 2.90554 0.965183 0.102902 -1.96914e-010 3.59263e-010 -1.43128e-010 10.2786 0.731801 0.0259123 -1.96923e-010 3.59265e-010 -1.43116e-010 2.22167 -0.733487 -0.20892 -2.47476e-016 -1.36705e-015 3.07631e-014 -21.5567 4.39457 -2.53541 1.5802 -0.511326 -2.64646 -0.0352779 4.16933 -0.580375 -2.33456e-010 -3.4194e-010 -1.66275e-011 -4.03318e-010 -5.90407e-010 -2.51597e-011 -2.33463e-010 -3.41942e-010 -1.66223e-011 -7.73091 5.47488 -0.417314 -2.33457e-010 -3.41942e-010 -1.663e-011 -2.90554 0.965183 -0.102902 -2.33461e-010 -3.4194e-010 -1.66268e-011 -10.2786 0.731801 -0.0259123 -2.33453e-010 -3.41938e-010 -1.66336e-011 -2.22167 -0.733487 0.20892 -2.03217e-016 0 -3.88251e-019 -1.4445 -4.07155 1.36239 -0.0110472 3.72451 0.0242232 -0.714169 1.92732 -3.05939 2.03217e-016 0 3.88251e-019 -0.754868 -8.37283 0.176702 -0.0196865 13.3448 -0.20425 1.2911 -5.27118 5.14798 
-81.1511 82.7857 -3.21164 -4.85004 -0.430398 100.069 -1.63861 -3.07497 1.57909 -0.329908 1.17911 0.366232 3.27217 8.7323 3.90908 -0.166524 -28.6738 6.70669 -0 0 0 -0 0 0 -1.07668e-014 -3.73173e-015 6.5953e-014 48.4047 9.09541 2.10723 -5.02168 -1.90205 8.48055 -0.0134273 6.99417 0.982431 -4.706e-010 7.28988e-010 -2.68671e-010 -8.1629e-010 1.26068e-009 -4.58727e-010 -4.70594e-010 7.28987e-010 -2.68679e-010 7.73091 5.47488 0.417314 -4.70601e-010 7.28986e-010 -2.68667e-010 2.90554 0.965183 0.102902 -4.70596e-010 7.28986e-010 -2.68669e-010 10.2786 0.731801 0.0259123 -4.70605e-010 7.28988e-010 -2.6866e-010 2.22167 -0.733487 -0.20892 -1.0858e-014 -3.72972e-015 6.56766e-014 -43.9169 9.00077 -5.26533 3.19831 -1.04777 -5.44302 0.0202742 8.58608 -1.20571 -5.41673e-010 -7.08734e-010 -2.21488e-011 -9.35622e-010 -1.22372e-009 -3.10433e-011 -5.41683e-010 -7.08735e-010 -2.21412e-011 -7.73091 5.47488 -0.417314 -5.41676e-010 -7.08737e-010 -2.21538e-011 -2.90554 0.965183 -0.102902 -5.41678e-010 -7.08733e-010 -2.21461e-011 -10.2786 0.731801 -0.0259123 -5.41671e-010 -7.08732e-010 -2.21544e-011 -2.22167 -0.733487 0.20892 -2.03217e-016 0 -3.88251e-019 -2.16197 -6.32006 2.83418 -0.0355625 9.84387 0.134049 -1.14863 -0.241096 -6.45713 2.03217e-016 0 3.88251e-019 0.290459 -10.3 0.203501 0.000622153 20.8024 -0.359809 3.16721 -10.9571 10.8094 
-81.097 82.7848 -3.1839 -6.05966 -2.97981 145.913 -1.6623 -4.48793 2.32139 -0.283952 1.71966 0.567221 4.35329 12.7081 5.77976 2.72563 -41.4907 11.4966 -0 0 0 -0 0 0 -1.46691e-014 -4.25961e-015 9.315e-014 70.3521 13.2688 3.12141 -7.134 -2.73833 12.3715 -0.100696 10.1847 1.44294 -7.29678e-010 1.0763e-009 -4.26702e-010 -1.26571e-009 1.86146e-009 -7.29125e-010 -7.29672e-010 1.0763e-009 -4.2671e-010 7.73091 5.47488 0.417314 -7.29679e-010 1.0763e-009 -4.26697e-010 2.90554 0.965183 0.102902 -7.29674e-010 1.0763e-009 -4.26697e-010 10.2786 0.731801 0.0259123 -7.29682e-010 1.0763e-009 -4.26691e-010 2.22167 -0.733487 -0.20892 -1.4759e-014 -4.25724e-015 9.28856e-014 -63.4809 13.0791 -7.78707 4.59935 -1.52089 -7.94189 0.152761 12.5028 -1.77871 -8.39364e-010 -1.02731e-009 -4.71982e-011 -1.45e-009 -1.7738e-009 -7.08372e-011 -8.39376e-010 -1.02731e-009 -4.71889e-011 -7.73091 5.47488 -0.417314 -8.39368e-010 -1.02731e-009 -4.72055e-011 -2.90554 0.965183 -0.102902 -8.39369e-010 -1.02731e-009 -4.71944e-011 -10.2786 0.731801 -0.0259123 -8.39361e-010 -1.02731e-009 -4.72036e-011 -2.22167 -0.733487 0.20892 -2.03217e-016 0 -3.88251e-019 -2.75974 -8.34996 4.13393 -0.0778986 15.3305 0.237192 -1.75223 -2.17431 -9.4683 2.03217e-016 0 3.88251e-019 1.16747 -12.0203 0.214168 0.0574064 27.4324 -0.516997 5.82419 -15.7529 16.1374 
-81.1897 82.7611 -3.08184 -5.205 -4.42222 177.97 -1.79897 -5.49648 2.82476 -0.224248 2.09887 0.704568 4.90456 15.4823 7.14619 6.81498 -50.1374 16.528 -0 0 0 -0 0 0 -1.7916e-015 -2.00726e-016 1.01082e-013 85.5246 16.2244 3.87282 -8.53155 -3.29555 15.075 -0.191062 12.3584 1.76458 -9.52245e-010 1.36759e-009 -6.65951e-010 -1.6528e-009 2.36585e-009 -1.14019e-009 -9.52239e-010 1.36759e-009 -6.65957e-010 7.73091 5.47488 0.417314 -9.52246e-010 1.36759e-009 -6.65945e-010 2.90554 0.965183 0.102902 -9.52242e-010 1.36759e-009 -6.65944e-010 10.2786 0.731801 0.0259123 -9.52249e-010 1.36759e-009 -6.65938e-010 2.22167 -0.733487 -0.20892 -1.88606e-015 -1.96843e-016 1.00834e-013 -76.8965 15.9366 -9.61831 5.55678 -1.84813 -9.69417 0.291007 15.1744 -2.18446 -1.11074e-009 -1.22533e-009 -1.21068e-010 -1.91957e-009 -2.11575e-009 -1.95407e-010 -1.11075e-009 -1.22534e-009 -1.21058e-010 -7.73091 5.47488 -0.417314 -1.11074e-009 -1.22534e-009 -1.21077e-010 -2.90554 0.965183 -0.102902 -1.11074e-009 -1.22533e-009 -1.21065e-010 -10.2786 0.731801 -0.0259123 -1.11073e-009 -1.22533e-009 -1.21074e-010 -2.22167 -0.733487 0.20892 -2.03217e-016 0 -3.88251e-019 -3.27971 -9.85028 4.97443 -0.11992 19.2353 0.314947 -2.29347 -3.56556 -11.5007 2.03217e-016 0 3.88251e-019 1.61889 -13.2237 0.183203 0.12201 31.9939 -0.640957 8.2462 -18.8455 20.0954 
